<?xml version="1.0" standalone="no"?>
<!DOCTYPE svg PUBLIC "-//W3C//DTD SVG 20010904//EN"
 "http://www.w3.org/TR/2001/REC-SVG-20010904/DTD/svg10.dtd">
<svg version="1.0" xmlns="http://www.w3.org/2000/svg"
 width="260.000000pt" height="260.000000pt" viewBox="0 0 260.000000 260.000000"
 preserveAspectRatio="xMidYMid meet">
<metadata>
Created by potrace 1.11, written by Peter Selinger 2001-2013
</metadata>
<g transform="translate(0.000000,260.000000) scale(0.100000,-0.100000)"
fill="#000000" stroke="none">
<path d="M1606 2115 c-24 -23 -54 -31 -96 -27 -33 3 -60 -9 -60 -27 0 -27 -26
-46 -44 -32 -20 17 -41 4 -52 -32 -8 -27 -13 -32 -37 -29 -20 3 -35 -5 -58
-27 -17 -17 -28 -35 -25 -40 6 -9 30 -130 39 -198 3 -17 8 -37 12 -42 3 -6 3
-11 -1 -11 -7 0 -86 42 -94 50 -3 3 -14 7 -25 8 -11 2 -23 8 -26 14 -3 5 -9 9
-13 9 -29 -4 -46 1 -40 11 4 7 3 8 -5 4 -6 -4 -19 -2 -28 6 -12 9 -15 9 -9 1
5 -9 2 -11 -8 -7 -9 3 -14 9 -12 13 3 4 -8 6 -22 5 -15 -1 -37 5 -49 12 -14 9
-23 10 -23 4 0 -8 -6 -7 -20 0 -11 6 -20 9 -20 7 0 -3 -29 1 -64 7 -35 7 -79
12 -98 11 -18 -1 -36 3 -40 9 -5 6 -8 7 -8 1 0 -12 -91 -12 -110 0 -9 5 -11 4
-6 -3 5 -8 0 -11 -16 -8 -13 2 -29 -2 -37 -8 -12 -8 -13 -8 -7 2 6 10 4 11
-10 4 -32 -16 -155 -42 -167 -35 -7 3 -9 3 -5 -2 7 -7 -52 -46 -62 -40 -6 3
-105 -96 -108 -107 -7 -26 -5 -92 2 -133 4 -20 4 -35 -1 -32 -8 5 -11 -17 -13
-83 0 -19 11 -56 24 -82 17 -33 21 -48 13 -52 -7 -3 -5 -4 4 -3 9 1 30 -13 47
-30 16 -18 35 -33 41 -33 6 0 11 -3 11 -8 0 -4 16 -16 35 -26 19 -11 35 -22
35 -26 0 -4 9 -10 21 -13 12 -3 18 -10 15 -15 -3 -6 2 -8 14 -5 11 3 20 0 20
-6 0 -5 7 -8 15 -5 8 4 21 2 28 -4 6 -5 29 -15 50 -22 22 -7 34 -16 31 -22 -5
-7 -2 -8 5 -4 7 5 22 0 34 -11 19 -15 20 -16 8 0 -15 19 -9 22 18 8 10 -6 29
-11 44 -13 14 -2 30 -8 34 -13 4 -4 3 -5 -4 -1 -6 3 -14 2 -17 -3 -8 -13 19
-8 37 7 12 11 15 11 13 0 -1 -7 -6 -20 -10 -28 -5 -8 2 -5 15 7 17 16 29 19
39 13 8 -5 32 -10 53 -10 23 0 37 -5 37 -12 0 -9 3 -9 8 -3 11 16 45 13 60 -5
11 -13 11 -13 7 0 -4 11 1 16 15 17 12 1 18 -2 14 -9 -5 -7 -2 -8 7 -2 16 9
25 11 89 18 25 2 58 7 73 11 21 4 27 2 22 -7 -4 -7 0 -5 8 4 8 10 17 15 20 11
4 -3 7 -1 7 6 0 7 5 9 10 6 6 -4 7 -11 4 -17 -4 -7 -2 -8 5 -4 6 4 9 12 6 17
-7 10 19 7 48 -6 21 -9 23 -25 2 -25 -8 0 -15 -5 -15 -11 0 -5 -4 -8 -8 -5 -4
2 -28 -4 -52 -15 -25 -11 -47 -21 -50 -21 -7 -1 -40 -56 -70 -118 -22 -44 -25
-60 -18 -82 6 -16 14 -28 19 -28 5 0 9 -7 9 -16 0 -9 -5 -12 -12 -8 -7 4 -8 3
-4 -5 6 -9 11 -9 22 0 10 8 14 8 14 0 0 -6 7 -11 15 -11 8 0 15 -4 15 -10 0
-5 7 -10 15 -10 8 0 15 -4 15 -9 0 -9 57 -27 72 -23 4 1 5 -5 1 -14 -5 -14 -3
-15 15 -5 17 9 23 8 31 -6 6 -10 11 -13 11 -8 0 6 14 9 33 7 23 -3 34 0 35 10
1 21 13 71 18 80 3 4 2 8 -3 9 -45 4 -163 41 -163 51 0 5 -7 8 -15 8 -8 0 -15
5 -15 10 0 6 -6 10 -13 10 -16 0 -36 39 -30 57 3 7 20 15 39 19 19 3 37 10 40
15 3 5 11 9 17 9 7 0 6 -4 -3 -10 -10 -7 -11 -10 -2 -10 7 0 15 7 18 15 4 8
10 15 16 15 5 0 6 -6 2 -12 -5 -10 -3 -10 7 0 8 7 14 16 14 20 1 4 6 16 12 27
17 31 35 134 29 161 -4 13 -3 24 2 24 5 0 17 15 27 34 11 19 23 32 29 29 14
-9 85 -10 80 -1 -3 5 -1 8 5 8 5 0 13 -9 16 -21 7 -19 7 -20 21 -2 7 10 14 13
14 6 0 -7 6 -11 13 -8 34 11 85 12 81 1 -3 -7 5 -12 18 -13 18 -2 20 0 8 7
-13 8 -12 10 3 10 9 0 17 -4 17 -9 0 -5 7 -12 16 -15 13 -5 14 -3 6 7 -8 10
-6 13 8 13 10 0 16 -4 14 -8 -5 -7 4 -10 22 -7 4 0 11 -5 15 -13 7 -10 9 -10
9 0 0 7 4 11 9 7 5 -3 16 1 24 9 8 8 17 12 21 9 3 -4 6 -1 6 5 0 6 7 9 15 6 8
-4 12 -11 8 -17 -3 -6 -1 -7 6 -3 8 5 9 12 2 20 -7 8 -5 12 9 13 13 1 17 -4
16 -21 -3 -20 1 -22 53 -20 31 1 59 2 64 3 13 2 7 34 -10 53 -10 11 -13 18 -8
17 6 -1 18 1 28 6 10 4 23 2 31 -4 11 -9 12 -6 8 14 -3 19 0 25 14 25 16 0 16
-2 4 -10 -8 -5 -12 -11 -9 -15 3 -3 14 4 25 16 10 11 14 20 9 19 -21 -4 -36 0
-30 9 7 12 -24 43 -36 36 -5 -4 -9 -1 -9 5 0 7 -6 8 -19 0 -22 -11 -27 -7 -29
33 -1 17 3 27 12 27 7 0 19 7 26 15 9 10 9 15 1 15 -6 0 -11 -4 -11 -10 0 -5
-4 -10 -8 -10 -18 0 -8 30 11 36 18 6 19 7 4 16 -18 10 -23 43 -8 53 6 3 8 -6
5 -22 -3 -15 -2 -25 1 -22 10 11 16 59 7 59 -5 0 -9 7 -9 15 0 11 6 13 20 9
17 -5 18 -4 6 9 -8 8 -18 12 -23 9 -5 -3 -6 0 -2 7 7 10 16 55 18 89 1 6 4 12
8 12 4 0 6 14 4 30 -2 17 0 30 4 30 4 0 8 15 8 33 2 28 5 51 17 107 1 8 6 21
10 28 5 6 6 12 2 12 -3 0 -1 9 5 19 7 14 7 22 -2 27 -7 5 -8 3 -3 -6 5 -8 3
-11 -6 -8 -8 3 -12 14 -11 24 2 10 1 16 -3 12 -4 -4 -17 4 -30 18 -12 13 -27
24 -34 24 -6 0 -11 4 -11 9 0 5 -14 14 -31 21 -17 7 -35 24 -40 37 -10 27 -18
28 -44 9 -20 -14 -28 -10 -82 41 -13 13 -39 24 -58 26 -19 2 -41 9 -48 16 -11
8 -20 5 -41 -14z m155 -998 c-10 -9 -11 -8 -5 6 3 10 9 15 12 12 3 -3 0 -11
-7 -18z"/>
<path d="M2051 1846 c-9 -10 -8 -15 2 -19 8 -3 13 3 13 14 0 23 0 23 -15 5z"/>
<path d="M2040 1816 c0 -2 8 -10 18 -17 15 -13 16 -12 3 4 -13 16 -21 21 -21
13z"/>
<path d="M2025 1740 c-3 -6 1 -7 9 -4 18 7 21 14 7 14 -6 0 -13 -4 -16 -10z"/>
<path d="M2010 1640 c0 -5 5 -10 10 -10 6 0 10 5 10 10 0 6 -4 10 -10 10 -5 0
-10 -4 -10 -10z"/>
<path d="M2010 1605 c-7 -9 -8 -15 -2 -15 5 0 12 7 16 15 3 8 4 15 2 15 -2 0
-9 -7 -16 -15z"/>
<path d="M1999 1578 c-9 -17 -3 -51 10 -60 14 -11 14 -11 5 2 -6 8 -10 25 -9
38 1 19 -2 29 -6 20z"/>
<path d="M2036 1377 c-8 -7 -12 -17 -8 -23 12 -19 110 -83 116 -77 3 4 6 1 6
-5 0 -6 8 -13 18 -17 16 -5 45 -68 47 -99 0 -6 -20 -11 -45 -13 -86 -5 -157
-47 -136 -81 2 -4 10 -46 16 -92 6 -47 13 -96 15 -110 8 -55 14 -113 30 -284
3 -34 25 -64 39 -54 2 2 14 -6 27 -17 12 -11 19 -14 15 -7 -4 6 -2 12 3 12 6
0 11 -6 11 -12 0 -9 4 -8 10 2 9 14 14 7 11 -13 -1 -4 8 -3 19 3 20 10 59 8
81 -6 7 -4 9 -3 6 3 -4 6 0 14 9 17 8 3 12 2 9 -4 -9 -14 9 -12 23 2 7 7 12 9
12 5 0 -4 10 -3 21 4 13 7 19 7 15 1 -3 -6 -2 -14 4 -17 6 -4 10 -3 9 2 -3 20
2 34 11 28 5 -3 7 -12 3 -20 -3 -8 0 -15 7 -15 6 0 9 4 5 9 -3 5 -1 12 5 16 5
3 10 12 10 18 0 8 -3 8 -9 -1 -6 -11 -10 -11 -18 0 -17 22 -23 47 -12 54 6 4
5 12 -3 22 -10 12 -10 14 0 8 6 -4 12 -2 12 3 0 6 -5 11 -11 11 -8 0 -9 4 0
13 6 8 8 16 6 19 -11 10 -14 48 -5 53 6 3 6 15 0 29 -5 13 -6 27 -2 30 3 4 7
32 9 64 1 31 7 58 11 60 5 1 7 18 5 37 -3 34 10 55 23 34 4 -7 3 -9 -3 -6 -5
3 -10 0 -10 -8 0 -11 4 -12 13 -4 7 6 10 18 7 27 -6 15 -5 16 12 2 17 -14 17
-14 4 8 -8 12 -19 22 -25 22 -14 0 -7 37 9 47 6 4 7 1 2 -7 -5 -9 -4 -11 3 -6
7 4 12 3 12 -3 0 -5 -6 -12 -12 -14 -7 -3 -8 -6 -2 -6 5 -1 19 6 30 14 13 11
14 14 4 13 -8 -2 -14 3 -12 10 1 8 -1 11 -6 8 -5 -3 -19 8 -31 25 -13 17 -25
28 -28 25 -4 -3 -12 -1 -18 4 -7 6 -25 12 -41 14 -97 12 -115 22 -119 68 -1
10 -8 26 -16 35 -11 14 -8 14 11 -2 18 -14 21 -15 11 -3 -7 9 -9 23 -5 29 4 8
3 9 -5 5 -7 -5 -23 3 -38 18 -14 14 -32 26 -39 26 -8 0 -14 5 -14 10 0 6 -7
10 -16 10 -8 0 -13 3 -11 8 3 4 -14 17 -38 29 -34 18 -46 20 -59 10z"/>
<path d="M1950 1320 c0 -5 5 -10 10 -10 6 0 10 5 10 10 0 6 -4 10 -10 10 -5 0
-10 -4 -10 -10z"/>
<path d="M2271 1206 c-9 -10 -9 -16 -1 -21 6 -4 14 -4 17 -1 4 3 1 6 -7 6 -10
0 -10 3 0 15 7 8 10 15 7 15 -2 0 -10 -6 -16 -14z"/>
<path d="M297 1129 c7 -7 15 -10 18 -7 3 3 -2 9 -12 12 -14 6 -15 5 -6 -5z"/>
<path d="M340 1086 c0 -2 8 -10 18 -17 15 -13 16 -12 3 4 -13 16 -21 21 -21
13z"/>
<path d="M510 1020 c0 -5 5 -10 11 -10 5 0 7 5 4 10 -3 6 -8 10 -11 10 -2 0
-4 -4 -4 -10z"/>
<path d="M615 980 c3 -5 8 -10 11 -10 2 0 4 5 4 10 0 6 -5 10 -11 10 -5 0 -7
-4 -4 -10z"/>
<path d="M1220 980 c-9 -6 -10 -10 -3 -10 6 0 15 5 18 10 8 12 4 12 -15 0z"/>
<path d="M1050 960 c0 -5 5 -10 11 -10 5 0 7 5 4 10 -3 6 -8 10 -11 10 -2 0
-4 -4 -4 -10z"/>
<path d="M815 951 c-3 -5 -2 -12 3 -15 5 -3 9 1 9 9 0 17 -3 19 -12 6z"/>
<path d="M993 945 c0 -8 4 -12 9 -9 5 3 6 10 3 15 -9 13 -12 11 -12 -6z"/>
<path d="M2466 935 c-11 -8 -17 -18 -13 -21 4 -4 2 -13 -5 -21 -6 -7 -8 -16
-5 -20 4 -3 2 -12 -3 -18 -11 -13 15 -43 27 -31 3 3 1 6 -7 6 -10 0 -10 3 1
17 11 13 11 17 2 20 -7 3 -13 9 -13 14 0 6 5 7 12 3 6 -4 8 -3 4 4 -3 6 2 13
11 15 16 4 16 5 -1 6 -18 1 -18 2 -1 21 21 23 18 25 -9 5z"/>
<path d="M1246 822 c-3 -5 1 -9 9 -9 8 0 12 4 9 9 -3 4 -7 8 -9 8 -2 0 -6 -4
-9 -8z"/>
<path d="M2433 805 c0 -8 4 -12 9 -9 5 3 6 10 3 15 -9 13 -12 11 -12 -6z"/>
<path d="M1173 795 c0 -8 4 -12 9 -9 4 3 8 9 8 15 0 5 -4 9 -8 9 -5 0 -9 -7
-9 -15z"/>
<path d="M2442 784 c-22 -21 -22 -23 -5 -33 10 -6 12 -11 6 -11 -7 0 -12 -3
-12 -7 1 -5 0 -10 -1 -13 -7 -19 -7 -39 1 -34 5 3 7 10 4 15 -4 5 -2 9 3 9 18
0 21 40 4 50 -16 9 -16 9 -1 10 9 0 20 7 23 16 9 24 4 23 -22 -2z"/>
<path d="M2450 688 c0 -9 -6 -19 -12 -21 -10 -4 -10 -6 0 -6 14 -1 28 26 18
36 -3 4 -6 -1 -6 -9z"/>
<path d="M2430 639 c0 -5 5 -7 10 -4 6 3 10 8 10 11 0 2 -4 4 -10 4 -5 0 -10
-5 -10 -11z"/>
<path d="M2439 613 c-12 -16 -12 -17 2 -6 9 7 20 9 24 5 5 -4 5 -1 1 6 -9 16
-11 15 -27 -5z"/>
<path d="M1131 604 c0 -11 3 -14 6 -6 3 7 2 16 -1 19 -3 4 -6 -2 -5 -13z"/>
<path d="M2425 581 c-3 -5 -1 -12 5 -16 6 -4 7 -12 3 -18 -4 -7 2 -5 13 3 29
22 30 24 12 17 -10 -3 -20 -2 -23 3 -3 5 3 11 12 13 16 4 16 5 1 6 -9 0 -19
-3 -23 -8z"/>
<path d="M1197 573 c-10 -9 -9 -23 1 -23 5 0 9 7 9 15 0 17 -1 18 -10 8z"/>
<path d="M1325 540 c-3 -6 1 -7 9 -4 18 7 21 14 7 14 -6 0 -13 -4 -16 -10z"/>
<path d="M2260 480 c8 -5 20 -10 25 -10 6 0 3 5 -5 10 -8 5 -19 10 -25 10 -5
0 -3 -5 5 -10z"/>
</g>
</svg>
